# xmcd
#
# Track frame offsets:
#	183
#	17838
#	34498
#	47383
#	66230
#	82820
#	99228
#	112948
#	126898
#	141330
#	154613
#	173315
#	188603
#	203290
#	220143
#	233238
#	247605
#	259670
#	275680
#	289065
#
# Disc length: 4026 seconds
# Revision: 5
# Processed by: cddbd v1.5.2PL0 Copyright (c) Steve Scherf et al.
# Submitted via: dBpowerAMP V12.0
#
DISCID=020fb814
DTITLE=Kenny Rogers - Country Classics [EMI Gold]
DYEAR=2002
DGENRE=Country
TTITLE0=Lady
TTITLE1=Don't Fall in Love with a Dreamer
TTITLE2=Ruby (Don't Take Your Love to Town)
TTITLE3=She Believes in Me
TTITLE4=Lucille
TTITLE5=You Decorated My Life
TTITLE6=Every Time Two Fools Collide
TTITLE7=All I Ever Need Is You
TTITLE8=You Needed Me
TTITLE9=Together Again
TTITLE10=You've Lost That Lovin' Feeling
TTITLE11=Why Don't We Go Somewhere and Love
TTITLE12=But You Know I Love You
TTITLE13=Love Lifted Me
TTITLE14=Love or Something Like It
TTITLE15=Another Somebody Done Somebody Wrong Song (Hey Won't You Play)
TTITLE16=My World Begins and Ends with You
TTITLE17=Just the Way You Are
TTITLE18=You and Me
TTITLE19=We Love Each Other
EXTD=
EXTT0=
EXTT1=
EXTT2=
EXTT3=
EXTT4=
EXTT5=
EXTT6=
EXTT7=
EXTT8=
EXTT9=
EXTT10=
EXTT11=
EXTT12=
EXTT13=
EXTT14=
EXTT15=
EXTT16=
EXTT17=
EXTT18=
EXTT19=
PLAYORDER=
